<svg width="120" height="40" viewBox="0 0 120 40" fill="none" xmlns="http://www.w3.org/2000/svg">
  <rect width="120" height="40" rx="4" fill="#F3F4F6"/>
  <path d="M22.8 25.2C19.6 25.2 17 22.6 17 19.4C17 16.2 19.6 13.6 22.8 13.6C26 13.6 28.6 16.2 28.6 19.4C28.6 22.6 26 25.2 22.8 25.2Z" fill="#7C3AED"/>
  <path d="M37.856 27V13.8H43.456C44.624 13.8 45.616 14.0267 46.432 14.48C47.248 14.9333 47.8667 15.5467 48.288 16.32C48.7093 17.0933 48.92 17.9733 48.92 18.96C48.92 19.9467 48.7093 20.8267 48.288 21.6C47.8667 22.3733 47.248 22.9867 46.432 23.44C45.616 23.8933 44.624 24.12 43.456 24.12H40.256V27H37.856ZM40.256 22.04H43.296C44.1013 22.04 44.752 21.8267 45.248 21.4C45.744 20.9733 45.992 20.0933 45.992 18.96C45.992 17.8267 45.744 16.9467 45.248 16.52C44.752 16.0933 44.1013 15.88 43.296 15.88H40.256V22.04Z" fill="#7C3AED"/>
  <path d="M50.9732 27V13.8H59.2532V15.88H53.3732V19.28H58.8132V21.36H53.3732V24.92H59.2532V27H50.9732Z" fill="#7C3AED"/>
  <path d="M61.7264 27V13.8H68.1264C69.2371 13.8 70.1704 14 70.9264 14.4C71.6824 14.8 72.2638 15.3333 72.6704 16C73.0771 16.6667 73.2804 17.4 73.2804 18.2C73.2804 19 73.0771 19.7333 72.6704 20.4C72.2638 21.0667 71.6824 21.6 70.9264 22C70.1704 22.4 69.2371 22.6 68.1264 22.6H64.1264V27H61.7264ZM64.1264 20.52H67.9664C68.7224 20.52 69.3038 20.3267 69.7104 19.94C70.1171 19.5533 70.3204 18.9733 70.3204 18.2C70.3204 17.4267 70.1171 16.8467 69.7104 16.46C69.3038 16.0733 68.7224 15.88 67.9664 15.88H64.1264V20.52Z" fill="#7C3AED"/>
  <path d="M77.8498 27L82.9698 13.8H85.8498L90.9698 27H88.3298L87.1698 23.76H81.5898L80.4298 27H77.8498ZM82.3298 21.8H86.4298L84.4098 16.12L82.3298 21.8Z" fill="#7C3AED"/>
  <path d="M92.8086 27V13.8H95.2086V24.92H101.089V27H92.8086Z" fill="#7C3AED"/>
</svg>
