<svg width="120" height="40" viewBox="0 0 120 40" fill="none" xmlns="http://www.w3.org/2000/svg">
  <rect width="120" height="40" rx="4" fill="#F3F4F6"/>
  <rect x="17" y="13" width="13" height="13" rx="6.5" fill="#4F46E5"/>
  <path d="M37.856 27V13.8H43.456C44.624 13.8 45.616 14.0267 46.432 14.48C47.248 14.9333 47.8667 15.5467 48.288 16.32C48.7093 17.0933 48.92 17.9733 48.92 18.96C48.92 19.9467 48.7093 20.8267 48.288 21.6C47.8667 22.3733 47.248 22.9867 46.432 23.44C45.616 23.8933 44.624 24.12 43.456 24.12H40.256V27H37.856ZM40.256 22.04H43.296C44.1013 22.04 44.752 21.8267 45.248 21.4C45.744 20.9733 45.992 20.0933 45.992 18.96C45.992 17.8267 45.744 16.9467 45.248 16.52C44.752 16.0933 44.1013 15.88 43.296 15.88H40.256V22.04Z" fill="#4F46E5"/>
  <path d="M50.9732 27V13.8H59.2532V15.88H53.3732V19.28H58.8132V21.36H53.3732V24.92H59.2532V27H50.9732Z" fill="#4F46E5"/>
  <path d="M61.7264 27V13.8H64.1264V19.44H71.5264V13.8H73.9264V27H71.5264V21.52H64.1264V27H61.7264Z" fill="#4F46E5"/>
  <path d="M79.0578 27V13.8H81.4578V24.92H87.3378V27H79.0578Z" fill="#4F46E5"/>
  <path d="M92.2914 27.16C91.0514 27.16 89.9674 26.8667 89.0314 26.28C88.0954 25.6933 87.3674 24.8667 86.8474 23.8C86.3274 22.7333 86.0674 21.5067 86.0674 20.12C86.0674 18.7333 86.3274 17.5067 86.8474 16.44C87.3674 15.3733 88.0954 14.5467 89.0314 13.96C89.9674 13.3733 91.0514 13.08 92.2914 13.08C93.5314 13.08 94.6154 13.3733 95.5514 13.96C96.4874 14.5467 97.2154 15.3733 97.7354 16.44C98.2554 17.5067 98.5154 18.7333 98.5154 20.12C98.5154 21.5067 98.2554 22.7333 97.7354 23.8C97.2154 24.8667 96.4874 25.6933 95.5514 26.28C94.6154 26.8667 93.5314 27.16 92.2914 27.16ZM92.2914 25C93.8381 25 95.0154 24.4667 95.8234 23.4C96.6314 22.3333 97.0354 20.9067 97.0354 20.12C97.0354 18.68 96.6314 17.6 95.8234 16.88C95.0154 16.16 93.8381 15.8 92.2914 15.8C90.7448 15.8 89.5674 16.16 88.7594 16.88C87.9514 17.6 87.5474 18.68 87.5474 20.12C87.5474 21.56 87.9514 22.64 88.7594 23.36C89.5674 24.08 90.7448 25 92.2914 25Z" fill="#4F46E5"/>
</svg>
